<svg width="24" height="24" viewBox="0 0 24 24" xmlns="http://www.w3.org/2000/svg">
    <defs>
        <linearGradient x1="50%" y1="21.348%" x2="50%" y2="86.706%" id="myh8469p2c">
            <stop stop-color="#818C96" stop-opacity="0" offset="0%"/>
            <stop stop-color="#818C96" offset="100%"/>
        </linearGradient>
        <linearGradient x1="50%" y1="0%" x2="50%" y2="86.637%" id="koga3k54db">
            <stop stop-color="#03192D" offset="0%"/>
            <stop stop-color="#03192D" offset="100%"/>
        </linearGradient>
        <linearGradient x1="50%" y1="0%" x2="50%" y2="86.637%" id="wxecp9857d">
            <stop stop-color="#E5E8EA" offset="0%"/>
            <stop stop-color="#B3BAC0" offset="100%"/>
        </linearGradient>
        <linearGradient x1="50%" y1="0%" x2="50%" y2="86.637%" id="ckbsteljxf">
            <stop stop-color="#E5E8EA" offset="0%"/>
            <stop stop-color="#B3BAC0" offset="100%"/>
        </linearGradient>
        <linearGradient x1="50%" y1="21.348%" x2="50%" y2="86.706%" id="m73ctn7nke">
            <stop stop-color="#818C96" stop-opacity="0" offset="0%"/>
            <stop stop-color="#818C96" offset="100%"/>
        </linearGradient>
        <linearGradient x1="0%" y1="53.94%" x2="100%" y2="53.94%" id="w9nn1lvbzh">
            <stop stop-color="#E5E8EA" stop-opacity="0" offset="0%"/>
            <stop stop-color="#B3BAC0" offset="100%"/>
        </linearGradient>
        <linearGradient x1="0%" y1="54.731%" x2="100%" y2="54.731%" id="o1p43o1vvg">
            <stop stop-color="#818C96" stop-opacity="0" offset="0%"/>
            <stop stop-color="#818C96" offset="100%"/>
        </linearGradient>
        <filter x="-29.2%" y="-19.2%" width="158.3%" height="153.8%" filterUnits="objectBoundingBox" id="2wyaubsmaa">
            <feOffset dy="1" in="SourceAlpha" result="shadowOffsetOuter1"/>
            <feGaussianBlur stdDeviation="1" in="shadowOffsetOuter1" result="shadowBlurOuter1"/>
            <feColorMatrix values="0 0 0 0 0.00784313725 0 0 0 0 0.0784313725 0 0 0 0 0.141176471 0 0 0 0.6 0" in="shadowBlurOuter1" result="shadowMatrixOuter1"/>
            <feMerge>
                <feMergeNode in="shadowMatrixOuter1"/>
                <feMergeNode in="SourceGraphic"/>
            </feMerge>
        </filter>
    </defs>
    <g fill="none" fill-rule="evenodd">
        <path d="M0 0h24v24H0z"/>
        <g filter="url(#2wyaubsmaa)" transform="translate(6 5.5)" fill="url(#koga3k54db)" fill-rule="nonzero" stroke="url(#myh8469p2c)" stroke-width=".36">
            <path d="M6.002.18a13.042 13.042 0 0 1 5.128 1.003 1.164 1.164 0 0 1 .69 1.06v3.952a6.735 6.735 0 0 1-1.262 3.839 6.81 6.81 0 0 1-3.24 2.445l-.583.21c-.236.086-.485.13-.732.131a2.14 2.14 0 0 1-.717-.136l-.59-.211a6.816 6.816 0 0 1-3.245-2.44A6.738 6.738 0 0 1 .18 6.197V2.242a1.15 1.15 0 0 1 .686-1.057A13.05 13.05 0 0 1 6.002.18z"/>
        </g>
        <path d="M15.47 8.19A8.701 8.701 0 0 0 12 7.5a8.701 8.701 0 0 0-3.47.69.906.906 0 0 0-.53.828v2.677a4.709 4.709 0 0 0 3.09 4.363l.394.143c.165.063.34.096.516.099.181 0 .36-.033.53-.095l.39-.143A4.705 4.705 0 0 0 16 11.695V9.018a.906.906 0 0 0-.53-.828z" fill="url(#wxecp9857d)" fill-rule="nonzero" opacity=".352"/>
        <path d="M12.002 9.25a5.187 5.187 0 0 1 1.94.359l.308 2.03a2.706 2.706 0 0 1-.494 1.506c-.295.42-.71.753-1.204.947-.968-.184-1.646-.493-2.094-.89-.5-.444-.7-.996-.708-1.58V10.07c.905-.693 1.573-.827 2.252-.82z" stroke="url(#m73ctn7nke)" stroke-width=".5" fill="url(#ckbsteljxf)" fill-rule="nonzero"/>
        <path d="M5.786 2.622a.748.748 0 0 1 .923.473l.041 17.564a.748.748 0 0 1-.717.75l-5.247-1.52L.25 4.83z" stroke="url(#o1p43o1vvg)" stroke-width=".5" fill="url(#w9nn1lvbzh)" fill-rule="nonzero"/>
        <path d="M22.786 2.622a.748.748 0 0 1 .923.473l.041 17.564a.748.748 0 0 1-.717.75l-5.247-1.52-.536-15.06z" stroke="url(#o1p43o1vvg)" stroke-width=".5" fill="url(#w9nn1lvbzh)" fill-rule="nonzero" transform="matrix(-1 0 0 1 41 0)"/>
    </g>
</svg>
