<svg width="24" height="28" viewBox="0 0 24 28" xmlns="http://www.w3.org/2000/svg">
    <defs>
        <linearGradient x1="50%" y1="0%" x2="50%" y2="86.637%" id="r9c3ithuec">
            <stop stop-color="#E5E8EA" offset="0%"/>
            <stop stop-color="#B3BAC0" offset="100%"/>
        </linearGradient>
        <linearGradient x1="50%" y1="21.348%" x2="50%" y2="86.706%" id="lysptl34ob">
            <stop stop-color="#818C96" stop-opacity="0" offset="0%"/>
            <stop stop-color="#818C96" offset="100%"/>
        </linearGradient>
        <filter x="-18.4%" y="-10.4%" width="136.8%" height="129.2%" filterUnits="objectBoundingBox" id="8j7reks75a">
            <feOffset dy="1" in="SourceAlpha" result="shadowOffsetOuter1"/>
            <feGaussianBlur stdDeviation="1" in="shadowOffsetOuter1" result="shadowBlurOuter1"/>
            <feColorMatrix values="0 0 0 0 0.00784313725 0 0 0 0 0.0784313725 0 0 0 0 0.141176471 0 0 0 0.6 0" in="shadowBlurOuter1" result="shadowMatrixOuter1"/>
            <feMerge>
                <feMergeNode in="shadowMatrixOuter1"/>
                <feMergeNode in="SourceGraphic"/>
            </feMerge>
        </filter>
    </defs>
    <g fill="none" fill-rule="evenodd">
        <path d="M0 1h24v24H0z"/>
        <g filter="url(#8j7reks75a)" transform="translate(2.5 1)" fill="#03192D" fill-rule="nonzero">
            <path d="M17.813 3.277c-4.085 0-7.332-2.783-7.363-2.825A1.228 1.228 0 0 0 9.5 0c-.367 0-.716.166-.95.452-.03.042-3.278 2.825-7.363 2.825C.532 3.277 0 3.815 0 4.478v9.91c0 4.574 8.031 8.985 8.945 9.474.348.184.762.184 1.11 0 .914-.49 8.945-4.9 8.945-9.473v-9.91c0-.664-.532-1.202-1.188-1.202z"/>
        </g>
        <path d="m15.29 4.732-2.35 5.257 2.54.372-6.185 7.934 1.594-5.36-2.44-.346 3.477-7.673 3.365-.184z" stroke="url(#lysptl34ob)" stroke-width=".463" fill="url(#r9c3ithuec)" fill-rule="nonzero" transform="translate(0 1)"/>
    </g>
</svg>
