<svg width="24" height="24" viewBox="0 0 24 24" xmlns="http://www.w3.org/2000/svg">
    <defs>
        <linearGradient x1="50%" y1="0%" x2="50%" y2="86.637%" id="5p0xj06bib">
            <stop stop-color="#E5E8EA" offset="0%"/>
            <stop stop-color="#B3BAC0" offset="100%"/>
        </linearGradient>
        <linearGradient x1="50%" y1="21.348%" x2="50%" y2="86.706%" id="8pt3k5uzva">
            <stop stop-color="#818C96" stop-opacity="0" offset="0%"/>
            <stop stop-color="#818C96" offset="100%"/>
        </linearGradient>
        <filter x="-39.3%" y="-25%" width="178.6%" height="178.6%" filterUnits="objectBoundingBox" id="7tsdivs82c">
            <feOffset dy="2" in="SourceAlpha" result="shadowOffsetOuter1"/>
            <feGaussianBlur stdDeviation="1.5" in="shadowOffsetOuter1" result="shadowBlurOuter1"/>
            <feColorMatrix values="0 0 0 0 0.00784313725 0 0 0 0 0.0784313725 0 0 0 0 0.141176471 0 0 0 0.6 0" in="shadowBlurOuter1" result="shadowMatrixOuter1"/>
            <feMerge>
                <feMergeNode in="shadowMatrixOuter1"/>
                <feMergeNode in="SourceGraphic"/>
            </feMerge>
        </filter>
    </defs>
    <g fill="none" fill-rule="evenodd">
        <path d="M0 0h24v24H0z"/>
        <circle stroke="url(#8pt3k5uzva)" stroke-width=".5" fill="url(#5p0xj06bib)" fill-rule="nonzero" cx="12" cy="12" r="11.75"/>
        <g filter="url(#7tsdivs82c)" transform="translate(5 5)" fill="#03192D">
            <path d="M3.578 7.156c-.925 0-1.62-.03-2.11-.063A1.496 1.496 0 0 1 .062 5.688 31.697 31.697 0 0 1 0 3.578c0-.925.03-1.62.062-2.11A1.496 1.496 0 0 1 1.468.062 31.7 31.7 0 0 1 3.578 0c.925 0 1.62.03 2.11.062a1.496 1.496 0 0 1 1.405 1.406c.026.373.048.865.058 1.488h.945c.005-.223.012-.42.02-.59A1.464 1.464 0 0 1 9.522.96c.316-.016.718-.028 1.212-.028.495 0 .897.012 1.213.028.77.039 1.365.634 1.404 1.404.016.316.028.718.028 1.213 0 .494-.012.896-.028 1.212a1.464 1.464 0 0 1-1.404 1.404c-.171.01-.368.016-.59.022v1.256c.483.008.877.025 1.189.045.765.048 1.357.64 1.405 1.405.027.436.05 1.033.05 1.811s-.023 1.376-.05 1.812a1.487 1.487 0 0 1-1.405 1.405 29.23 29.23 0 0 1-1.812.05 29.23 29.23 0 0 1-1.811-.05 1.487 1.487 0 0 1-1.405-1.405c-.02-.312-.037-.706-.045-1.19H5.903l-.01.29A1.45 1.45 0 0 1 4.49 13.05c-.25.01-.552.018-.912.018s-.663-.008-.912-.018a1.45 1.45 0 0 1-1.404-1.404c-.01-.25-.018-.552-.018-.912s.008-.662.018-.912a1.45 1.45 0 0 1 1.404-1.403c.25-.01.552-.018.912-.018s.662.007.912.018A1.45 1.45 0 0 1 5.893 9.82l.01.29h1.569c.008-.484.025-.878.045-1.19a1.487 1.487 0 0 1 1.405-1.404c.311-.02.705-.037 1.19-.045V6.216c-.224-.006-.42-.013-.591-.022A1.464 1.464 0 0 1 8.117 4.79a21.323 21.323 0 0 1-.021-.59H7.15c-.01.622-.032 1.115-.058 1.488a1.496 1.496 0 0 1-1.405 1.405c-.49.033-1.185.063-2.11.063z"/>
        </g>
    </g>
</svg>
