<svg width="24" height="24" viewBox="0 0 24 24" xmlns="http://www.w3.org/2000/svg">
    <defs>
        <linearGradient x1="50%" y1="-54.606%" x2="50%" y2="89.97%" id="azj4tukula">
            <stop stop-color="#E5E8EA" offset="0%"/>
            <stop stop-color="#B3BAC0" offset="100%"/>
        </linearGradient>
        <linearGradient x1="50%" y1="-6.285%" x2="50%" y2="86.706%" id="bnxr2zg5wb">
            <stop stop-color="#818C96" stop-opacity="0" offset="0%"/>
            <stop stop-color="#818C96" offset="100%"/>
        </linearGradient>
    </defs>
    <g fill="none" fill-rule="evenodd">
        <path d="M0 0h24v24H0z"/>
        <path d="M23.486 1a3.537 3.537 0 0 0-3.518 3.192 3.43 3.43 0 0 0-1.027-.158 3.537 3.537 0 0 0-3.536 3.539c0 .279.227.505.505.505h2.525a2.021 2.021 0 0 1 0 4.045H6.82c-2.132.03-4.236.485-6.19 1.338a.933.933 0 0 0-.565.574c-.095.257-.086.541.026.792.22.468.468.923.741 1.363 1.02 3.64 2.999 7.455 8.604 7.455 1.17.001 2.335-.148 3.467-.445a8.362 8.362 0 0 1-.997-1.84c-2.445.536-5.323.41-7.107-1.563A9.195 9.195 0 0 1 3.006 16.4c1.925.18 3.76.898 5.296 2.072a20.82 20.82 0 0 0 3.322 1.82.758.758 0 0 1 1.486-.101 6.126 6.126 0 0 0 2.106 3.191 4.037 4.037 0 0 0 2.02.617.451.451 0 0 0 .444-.63l-1.153-2.692a.758.758 0 1 1 1.392-.599l.303.699c.008-.012 1.58-1.214 1.58-1.214A12.585 12.585 0 0 0 24 10.6V1.5a.506.506 0 0 0-.514-.5zM10 16.5a1 1 0 1 1-.038-2 1 1 0 0 1 .038 2z" fill="#03192D" fill-rule="nonzero"/>
        <path d="m5.396 6.266.334 4.126-5.126.342L.27 6.608l5.126-.342zm4.934.021c-.117.418-.175.85-.175 1.286a1.755 1.755 0 0 0 1.755 1.755h.84v1.063l-5.146.343-.335-4.135zM12.402.265l.33 3.058a4.805 4.805 0 0 0-1.658 1.427H7.605L7.27.608l5.133-.343z" transform="translate(4)" fill="url(#azj4tukula)" fill-rule="nonzero" stroke="url(#bnxr2zg5wb)" stroke-width=".5"/>
    </g>
</svg>
