<svg width="20" height="20" viewBox="0 0 20 20" xmlns="http://www.w3.org/2000/svg">
  <defs>
    <linearGradient x1="50%" y1="-54.606%" x2="50%" y2="89.97%" id="knyahiex8a">
      <stop stop-color="#E5E8EA" offset="0%" />
      <stop stop-color="#B3BAC0" offset="100%" />
    </linearGradient>
    <linearGradient x1="50%" y1="-6.285%" x2="50%" y2="86.706%" id="haq98gfkeb">
      <stop stop-color="#818C96" stop-opacity="0" offset="0%" />
      <stop stop-color="#818C96" offset="100%" />
    </linearGradient>
  </defs>
  <g fill="none" fill-rule="evenodd">
    <path d="M0 0h20v20H0z" />
    <path
      d="M19.572.834a2.947 2.947 0 0 0-2.932 2.659 2.859 2.859 0 0 0-.856-.131 2.947 2.947 0 0 0-2.946 2.949c0 .232.188.421.42.421h2.105a1.684 1.684 0 0 1 0 3.37h-9.68c-1.776.025-3.53.404-5.158 1.115a.777.777 0 0 0-.47.479.877.877 0 0 0 .02.66c.185.39.391.769.618 1.136.85 3.033 2.5 6.212 7.17 6.212.975.001 1.947-.123 2.89-.37-.34-.475-.62-.99-.831-1.534-2.037.447-4.436.342-5.923-1.303a7.662 7.662 0 0 1-1.494-2.83 8.574 8.574 0 0 1 4.413 1.726 17.35 17.35 0 0 0 2.769 1.517.632.632 0 0 1 1.238-.084 5.105 5.105 0 0 0 1.755 2.659 3.364 3.364 0 0 0 1.684.514.376.376 0 0 0 .37-.525l-.962-2.244a.632.632 0 0 1 1.16-.498l.253.582c.006-.01 1.316-1.011 1.316-1.011A10.487 10.487 0 0 0 20 8.833V1.25a.422.422 0 0 0-.428-.416zM8.334 13.75a.833.833 0 1 1-.033-1.666.833.833 0 0 1 .033 1.666z"
      fill="#03192D" fill-rule="nonzero" />
    <path
      d="M4.458 5.266 4.73 8.62l-4.188.28L.27 5.545l4.188-.28zm4.094.021a4.026 4.026 0 0 0-.131 1.024 1.504 1.504 0 0 0 1.504 1.504h.658v.805l-4.208.28-.273-3.364zM10.298.265l.268 2.48a4.046 4.046 0 0 0-1.359 1.172h-2.83L6.102.545l4.195-.28z"
      transform="translate(3.334)" fill="url(#knyahiex8a)" fill-rule="nonzero" stroke="url(#haq98gfkeb)"
      stroke-width=".5" />
  </g>
</svg>