<svg width="20" height="24" viewBox="0 0 20 24" xmlns="http://www.w3.org/2000/svg">
  <defs>
    <linearGradient x1="50%" y1="0%" x2="50%" y2="86.637%" id="f5x15f55fc">
      <stop stop-color="#E5E8EA" offset="0%" />
      <stop stop-color="#B3BAC0" offset="100%" />
    </linearGradient>
    <linearGradient x1="50%" y1="21.348%" x2="50%" y2="86.706%" id="zp6tqj2r1b">
      <stop stop-color="#818C96" stop-opacity="0" offset="0%" />
      <stop stop-color="#818C96" offset="100%" />
    </linearGradient>
    <filter x="-22.1%" y="-12.5%" width="144.2%" height="135%" filterUnits="objectBoundingBox" id="9138hfwrta">
      <feOffset dy="1" in="SourceAlpha" result="shadowOffsetOuter1" />
      <feGaussianBlur stdDeviation="1" in="shadowOffsetOuter1" result="shadowBlurOuter1" />
      <feColorMatrix values="0 0 0 0 0.00784313725 0 0 0 0 0.0784313725 0 0 0 0 0.141176471 0 0 0 0.6 0"
        in="shadowBlurOuter1" result="shadowMatrixOuter1" />
      <feMerge>
        <feMergeNode in="shadowMatrixOuter1" />
        <feMergeNode in="SourceGraphic" />
      </feMerge>
    </filter>
  </defs>
  <g fill="none" fill-rule="evenodd">
    <path d="M0 1h20v20H0z" />
    <g filter="url(#9138hfwrta)" transform="translate(2.083 1)" fill="#03192D" fill-rule="nonzero">
      <path
        d="M14.844 2.73C11.44 2.73 8.734.413 8.708.377a1.023 1.023 0 0 0-1.583 0C7.099.412 4.394 2.731.99 2.731A.995.995 0 0 0 0 3.732v8.258c0 3.812 6.693 7.487 7.455 7.895.289.153.634.153.924 0 .762-.408 7.454-4.083 7.454-7.895V3.732a.995.995 0 0 0-.99-1.001z" />
    </g>
    <path d="m12.741 3.982-2.017 4.373 2.105.308-4.988 6.398 1.283-4.314-2.026-.287 2.874-6.345 2.77-.133z"
      stroke="url(#zp6tqj2r1b)" stroke-width=".463" fill="url(#f5x15f55fc)" fill-rule="nonzero"
      transform="translate(0 1)" />
  </g>
</svg>