<svg width="20" height="21" viewBox="0 0 20 21" xmlns="http://www.w3.org/2000/svg"
  xmlns:xlink="http://www.w3.org/1999/xlink">
  <defs>
    <linearGradient x1="50%" y1="0%" x2="50%" y2="86.637%" id="nhltlv6bpa">
      <stop stop-color="#E5E8EA" offset="0%" />
      <stop stop-color="#B3BAC0" offset="100%" />
    </linearGradient>
    <linearGradient x1="50%" y1="0%" x2="50%" y2="86.637%" id="ucx3ms8u7b">
      <stop stop-color="#E5E8EA" offset="0%" />
      <stop stop-color="#B3BAC0" offset="100%" />
    </linearGradient>
    <linearGradient x1="50%" y1="0%" x2="50%" y2="86.637%" id="un35f2i6jf">
      <stop stop-color="#E5E8EA" offset="0%" />
      <stop stop-color="#B3BAC0" offset="100%" />
    </linearGradient>
    <linearGradient x1="50%" y1="21.348%" x2="50%" y2="86.706%" id="w8jj12sbre">
      <stop stop-color="#818C96" stop-opacity="0" offset="0%" />
      <stop stop-color="#818C96" offset="100%" />
    </linearGradient>
    <filter x="-22.1%" y="-16.6%" width="144.2%" height="146.5%" filterUnits="objectBoundingBox" id="yjggi178oc">
      <feOffset dy="1" in="SourceAlpha" result="shadowOffsetOuter1" />
      <feGaussianBlur stdDeviation="1" in="shadowOffsetOuter1" result="shadowBlurOuter1" />
      <feColorMatrix values="0 0 0 0 0.00784313725 0 0 0 0 0.0784313725 0 0 0 0 0.141176471 0 0 0 0.6 0"
        in="shadowBlurOuter1" />
    </filter>
    <path
      d="M7.894 0c.145 0 .308.017.452.087l5.523 2.537c.271.14.489.365.58.644l1.375 5.683c.014.11.012.218-.004.325l.004.025a1.15 1.15 0 0 1-.217.834l-3.82 4.536c-.2.261-.507.4-.833.365H4.87a1.343 1.343 0 0 1-.833-.365l-3.82-4.536a1.062 1.062 0 0 1-.2-.834l-.002.017c-.02-.12-.02-.243.003-.367l1.358-5.718a.943.943 0 0 1 .543-.643L7.44.035C7.586 0 7.75 0 7.894 0z"
      id="83x1iy52jd" />
  </defs>
  <g fill="none" fill-rule="evenodd">
    <path d="M0 1h20v20H0z" />
    <path
      d="M5.371 15.475a.52.52 0 0 0 .153-.368v-.175c0-1.636-1.199-3.37-1.225-3.404a5.383 5.383 0 0 0-1.796-1.421.104.104 0 0 1-.054-.133l.095-.23a.417.417 0 0 0-.458-.57l-1.725.241a.417.417 0 0 0-.275.667l1.05 1.379a.417.417 0 0 0 .717-.092l.104-.254a.1.1 0 0 1 .062-.054.087.087 0 0 1 .084 0 4.296 4.296 0 0 1 2.379 3.854v.175a.52.52 0 0 0 .89.385z"
      fill="url(#nhltlv6bpa)" fill-rule="nonzero" transform="matrix(1 0 0 -1 0 25.794)" />
    <path
      d="M19.83 15.475a.52.52 0 0 0 .152-.368v-.175c0-1.636-1.198-3.37-1.225-3.404a5.383 5.383 0 0 0-1.796-1.421.104.104 0 0 1-.054-.133l.096-.23a.417.417 0 0 0-.459-.57l-1.725.241a.417.417 0 0 0-.275.667l1.05 1.379a.417.417 0 0 0 .717-.092l.104-.254a.1.1 0 0 1 .063-.054.087.087 0 0 1 .083 0 4.296 4.296 0 0 1 2.38 3.854v.175a.52.52 0 0 0 .888.385z"
      fill="url(#nhltlv6bpa)" fill-rule="nonzero" transform="rotate(180 17.22 12.897)" />
    <path
      d="M10.371 19.85a.52.52 0 0 0 .153-.369v-.175c0-1.636.681-4.008.187-3.412a.096.096 0 0 1-.112.029.104.104 0 0 1-.071-.096V12.59a.104.104 0 0 1 .1-.088h.337c.156.004.3-.08.375-.217a.442.442 0 0 0 0-.437l-.962-1.65a.454.454 0 0 0-.75 0l-.963 1.633a.442.442 0 0 0 0 .438c.075.136.22.22.375.216h.338c.057 0 .104.047.104.105v3.245a.108.108 0 0 1-.07.096.096.096 0 0 1-.113-.029c-.49-.597.187 1.755.183 3.388v.175a.52.52 0 0 0 .89.385z"
      fill="url(#ucx3ms8u7b)" fill-rule="nonzero" transform="matrix(1 0 0 -1 0 31.002)" />
    <g transform="translate(2.083 1)">
      <use fill="#000" filter="url(#yjggi178oc)" xlink:href="#83x1iy52jd" />
      <use fill="#03192D" xlink:href="#83x1iy52jd" />
    </g>
    <path
      d="M13.158 8.968c-.017 0-.033 0-.033-.017 0-.016-.034-.016-.067-.016-.067-.017-.134-.017-.2-.017-.034 0-.067 0-.1-.017h-.017a3.372 3.372 0 0 1-.567-.1.202.202 0 0 1-.117-.117c.017 0 0 0 0 0l-.134-.033a4.351 4.351 0 0 0-.066-1.468 4.52 4.52 0 0 0-.584-1.368l.1-.1v-.017c0-.05.017-.117.05-.15.15-.133.3-.234.467-.334l.1-.05c.067-.033.117-.066.184-.1.016-.016.033-.016.05-.033.016-.017 0-.017 0-.034.15-.116.183-.317.067-.467a.319.319 0 0 0-.234-.116.399.399 0 0 0-.234.083l-.016.017c-.017.016-.034.033-.05.033-.05.05-.1.1-.134.15-.017.034-.05.05-.067.067a2.194 2.194 0 0 1-.417.367.237.237 0 0 1-.1.033c-.016 0-.05 0-.066-.016h-.017l-.134.083c-.133-.133-.283-.267-.417-.4a4.275 4.275 0 0 0-2.169-.868L8.22 3.83v.016c-.05-.033-.067-.083-.084-.133 0-.184 0-.367.034-.567v-.017c0-.033.016-.067.016-.1.017-.067.017-.134.034-.2v-.1a.33.33 0 0 0-.284-.35c-.1-.017-.2.033-.283.116a.33.33 0 0 0-.1.234v.083c0 .067.016.133.033.2.017.034.017.067.017.1v.017c.033.183.033.367.033.567-.017.05-.033.1-.084.134v.033l-.016.133c-.184.017-.367.05-.567.084a3.977 3.977 0 0 0-2.052 1.168l-.1-.067H4.8c-.017 0-.034.017-.067.017s-.067-.017-.1-.034c-.15-.116-.3-.25-.417-.383-.017-.034-.05-.05-.067-.067-.05-.05-.083-.1-.133-.15-.017-.017-.034-.017-.05-.034l-.017-.016a.399.399 0 0 0-.234-.084c-.1 0-.183.034-.233.117-.1.15-.067.35.067.467.016 0 .016.017.016.017s.034.033.05.033c.05.034.117.067.184.1l.1.05c.167.1.334.2.467.334.033.033.067.1.05.15v-.017l.1.1c-.017.034-.033.05-.05.084a3.962 3.962 0 0 0-.584 2.736l-.133.033c0 .017-.017.017-.017.017-.017.05-.067.083-.117.117-.183.05-.367.083-.567.1-.033 0-.067 0-.1.017-.067 0-.134.016-.2.016-.017 0-.034.017-.067.017-.017 0-.017 0-.033.017-.184.033-.3.2-.267.383a.31.31 0 0 0 .333.234c.034 0 .05 0 .084-.017.016 0 .016 0 .016-.016 0-.017.05 0 .067 0 .067-.017.134-.05.184-.067a.237.237 0 0 1 .1-.033h.016c.184-.067.35-.117.551-.15h.017c.05 0 .1.016.133.05.017 0 .017.016.017.016l.15-.017c.25.768.717 1.452 1.368 1.952.15.117.284.217.45.3l-.083.117c0 .017.017.017.017.017.033.05.033.117.016.167a2.737 2.737 0 0 1-.267.484v.016c-.016.034-.033.05-.066.084-.034.033-.067.1-.117.167-.017.016-.017.033-.033.05 0 0 0 .016-.017.016a.343.343 0 0 0 .133.45.31.31 0 0 0 .117.034c.134 0 .25-.083.317-.2 0 0 0-.017.017-.017 0-.016.017-.033.033-.05.017-.066.05-.116.067-.183l.033-.1c.05-.184.134-.35.217-.517a.26.26 0 0 1 .134-.1c.016 0 .016 0 .016-.017l.067-.134c.467.184.951.267 1.452.267.3 0 .6-.033.9-.117.184-.033.367-.1.534-.15l.067.117c.017 0 .017 0 .017.017.05.016.1.05.133.1.084.167.167.333.217.517v.017l.033.1a.598.598 0 0 0 .067.183c.017.017.017.034.033.05 0 0 0 .017.017.017.067.117.184.2.317.2.05 0 .084-.016.134-.033a.28.28 0 0 0 .15-.184.43.43 0 0 0-.017-.25c0-.017-.017-.017-.017-.017 0-.016-.016-.033-.033-.05a.6.6 0 0 0-.117-.166c-.016-.034-.033-.05-.066-.084v-.033c-.117-.15-.2-.317-.267-.484a.197.197 0 0 1 .016-.167c0-.017.017-.017.017-.017l-.05-.133a4.124 4.124 0 0 0 1.802-2.269l.133.017c.017 0 .017-.017.017-.017a.19.19 0 0 1 .133-.05h.017c.184.033.367.083.534.15h.017a.237.237 0 0 0 .1.034c.066.033.116.066.183.083.017 0 .034.017.067.017.017 0 .017 0 .033.016a.15.15 0 0 0 .084.017c.15 0 .283-.1.333-.234a.393.393 0 0 0-.3-.35zm-4.821-.517-.45.217-.451-.217-.117-.484.317-.4h.5l.317.4-.116.484zm2.719-1.085c.083.35.1.701.067 1.052l-1.585-.45c-.15-.034-.234-.184-.2-.335a.269.269 0 0 1 .066-.116l1.252-1.135c.183.3.317.634.4.984zm-.9-1.601-1.369.968c-.117.066-.284.05-.367-.067a.151.151 0 0 1-.05-.117l-.1-1.685a3.14 3.14 0 0 1 1.885.9zm-3.02-.851.333-.067-.083 1.669c0 .15-.134.267-.284.267-.05 0-.083-.017-.133-.034l-1.385-.984a3.313 3.313 0 0 1 1.551-.851zM5.1 6.382l1.235 1.101c.116.1.133.267.033.384-.033.05-.067.067-.133.083l-1.619.468c-.05-.701.117-1.419.484-2.036zm-.284 2.82 1.652-.284c.134 0 .267.083.284.217a.197.197 0 0 1-.017.167l-.634 1.535a3.282 3.282 0 0 1-1.285-1.635zm3.788 2.068c-.234.05-.468.084-.718.084a3.74 3.74 0 0 1-1.05-.167l.817-1.485a.259.259 0 0 1 .333-.067c.05.034.084.067.134.117l.8 1.452c-.1.016-.2.033-.316.066zm2.035-1.451c-.25.4-.6.75-1.001 1l-.65-1.567a.271.271 0 0 1 .15-.317c.05-.017.1-.034.15-.034l1.668.284c-.084.234-.184.45-.317.634z"
      stroke="url(#w8jj12sbre)" stroke-width=".25" fill="url(#un35f2i6jf)" fill-rule="nonzero"
      transform="translate(2.083 1)" />
  </g>
</svg>