<svg width="24" height="25" viewBox="0 0 24 25" xmlns="http://www.w3.org/2000/svg" xmlns:xlink="http://www.w3.org/1999/xlink">
    <defs>
        <linearGradient x1="50%" y1="0%" x2="50%" y2="86.637%" id="s0feg33w1a">
            <stop stop-color="#E5E8EA" offset="0%"/>
            <stop stop-color="#B3BAC0" offset="100%"/>
        </linearGradient>
        <linearGradient x1="50%" y1="0%" x2="50%" y2="86.637%" id="ybeec3oxgb">
            <stop stop-color="#E5E8EA" offset="0%"/>
            <stop stop-color="#B3BAC0" offset="100%"/>
        </linearGradient>
        <linearGradient x1="50%" y1="0%" x2="50%" y2="86.637%" id="w94yu63xcf">
            <stop stop-color="#E5E8EA" offset="0%"/>
            <stop stop-color="#B3BAC0" offset="100%"/>
        </linearGradient>
        <linearGradient x1="50%" y1="21.348%" x2="50%" y2="86.706%" id="d2ff1thwpe">
            <stop stop-color="#818C96" stop-opacity="0" offset="0%"/>
            <stop stop-color="#818C96" offset="100%"/>
        </linearGradient>
        <filter x="-18.4%" y="-13.9%" width="136.8%" height="138.8%" filterUnits="objectBoundingBox" id="7aofyrx54c">
            <feOffset dy="1" in="SourceAlpha" result="shadowOffsetOuter1"/>
            <feGaussianBlur stdDeviation="1" in="shadowOffsetOuter1" result="shadowBlurOuter1"/>
            <feColorMatrix values="0 0 0 0 0.00784313725 0 0 0 0 0.0784313725 0 0 0 0 0.141176471 0 0 0 0.6 0" in="shadowBlurOuter1"/>
        </filter>
        <path d="M9.473 0c.173 0 .369.02.543.104l6.627 3.045c.325.167.586.438.695.772l1.651 6.82c.016.131.014.262-.005.39l.005.03c.044.355-.043.71-.26 1.001l-4.585 5.444c-.24.313-.608.48-1 .438h-7.3a1.612 1.612 0 0 1-1-.438L.26 12.162a1.275 1.275 0 0 1-.239-1.001l-.003.023a1.262 1.262 0 0 1 .003-.443l1.63-6.862c.087-.354.326-.625.652-.771L8.929.042C9.103 0 9.3 0 9.473 0z" id="dl4o3swand"/>
    </defs>
    <g fill="none" fill-rule="evenodd">
        <path d="M0 1h24v24H0z"/>
        <path d="M6.445 18.57a.625.625 0 0 0 .183-.442v-.21c0-1.963-1.438-4.044-1.47-4.085a6.46 6.46 0 0 0-2.155-1.705.125.125 0 0 1-.065-.16l.115-.275a.5.5 0 0 0-.55-.685l-2.07.29a.5.5 0 0 0-.33.8l1.26 1.655a.5.5 0 0 0 .86-.11l.125-.305a.12.12 0 0 1 .075-.065.105.105 0 0 1 .1 0 5.155 5.155 0 0 1 2.855 4.625v.21a.625.625 0 0 0 1.067.462z" fill="url(#s0feg33w1a)" fill-rule="nonzero" transform="matrix(1 0 0 -1 0 30.753)"/>
        <path d="M23.795 18.57a.625.625 0 0 0 .183-.442v-.21c0-1.963-1.438-4.044-1.47-4.085a6.46 6.46 0 0 0-2.155-1.705.125.125 0 0 1-.065-.16l.115-.275a.5.5 0 0 0-.55-.685l-2.07.29a.5.5 0 0 0-.33.8l1.26 1.655a.5.5 0 0 0 .86-.11l.125-.305a.12.12 0 0 1 .075-.065.105.105 0 0 1 .1 0 5.155 5.155 0 0 1 2.855 4.625v.21a.625.625 0 0 0 1.067.462z" fill="url(#s0feg33w1a)" fill-rule="nonzero" transform="rotate(180 20.664 15.377)"/>
        <path d="M12.445 23.82a.625.625 0 0 0 .183-.442v-.21c0-1.964.819-4.81.225-4.095a.115.115 0 0 1-.135.035.125.125 0 0 1-.085-.115v-3.885c.01-.06.06-.104.12-.105h.405a.5.5 0 0 0 .45-.26.53.53 0 0 0 0-.525l-1.155-1.98a.545.545 0 0 0-.9 0l-1.155 1.96a.53.53 0 0 0 0 .525.5.5 0 0 0 .45.26h.405c.07 0 .125.056.125.125v3.895a.13.13 0 0 1-.085.115.115.115 0 0 1-.135-.035c-.587-.717.225 2.106.22 4.065v.21a.625.625 0 0 0 1.067.461z" fill="url(#ybeec3oxgb)" fill-rule="nonzero" transform="matrix(1 0 0 -1 0 37.003)"/>
        <g transform="translate(2.5 1)">
            <use fill="#000" filter="url(#7aofyrx54c)" xlink:href="#dl4o3swand"/>
            <use fill="#03192D" xlink:href="#dl4o3swand"/>
        </g>
        <path d="M15.79 10.762c-.02 0-.04 0-.04-.02s-.04-.02-.08-.02c-.08-.02-.16-.02-.24-.02-.04 0-.08 0-.12-.02h-.02c-.221-.02-.461-.06-.682-.12a.242.242 0 0 1-.14-.14c.02 0 0 0 0 0l-.16-.04c.08-.581.04-1.182-.08-1.762a5.424 5.424 0 0 0-.7-1.642l.12-.12v-.02c0-.06.02-.14.06-.18.18-.16.36-.28.56-.4l.12-.06c.08-.04.14-.08.22-.121.02-.02.04-.02.06-.04.02-.02 0-.02 0-.04.18-.14.22-.38.08-.56a.382.382 0 0 0-.28-.14c-.1 0-.2.04-.28.1l-.02.02c-.02.02-.04.04-.06.04-.06.06-.12.12-.16.18-.02.04-.06.06-.08.08-.14.16-.32.32-.5.44-.04.02-.08.04-.12.04-.02 0-.06 0-.081-.02h-.02l-.16.1c-.16-.16-.34-.32-.5-.48a5.13 5.13 0 0 0-2.603-1.041l-.02-.16v.02c-.06-.04-.08-.1-.1-.16 0-.22 0-.441.04-.681v-.02c0-.04.02-.08.02-.12.02-.08.02-.16.04-.24v-.12c.02-.2-.14-.401-.34-.421-.12-.02-.24.04-.34.14-.081.08-.121.18-.121.28v.1c0 .08.02.16.04.24.02.04.02.08.02.12v.02c.04.22.04.441.04.681-.02.06-.04.12-.1.16v.04l-.02.16c-.22.02-.44.06-.68.1-.942.201-1.803.702-2.463 1.402l-.12-.08h-.02c-.02 0-.04.02-.08.02s-.08-.02-.12-.04c-.18-.14-.36-.3-.501-.46-.02-.04-.06-.06-.08-.08-.06-.06-.1-.12-.16-.18-.02-.02-.04-.02-.06-.04l-.02-.02a.478.478 0 0 0-.28-.1c-.12 0-.22.04-.28.14a.43.43 0 0 0 .08.56c.02 0 .02.02.02.02s.04.04.06.04c.06.04.14.08.22.12l.12.06c.2.12.4.24.56.4.04.04.08.12.06.18v-.02l.12.12c-.02.04-.04.06-.06.101a4.754 4.754 0 0 0-.7 3.283l-.16.04c0 .02-.02.02-.02.02-.02.06-.08.1-.14.14-.22.06-.441.1-.681.12-.04 0-.08 0-.12.02-.08 0-.16.02-.24.02-.02 0-.04.02-.08.02-.02 0-.02 0-.04.02a.39.39 0 0 0-.321.461c.04.18.22.3.4.28.04 0 .06 0 .1-.02.02 0 .02 0 .02-.02s.06 0 .08 0c.08-.02.16-.06.22-.08.04-.02.08-.04.12-.04h.02c.221-.08.421-.14.661-.18h.02c.06 0 .12.02.16.06.02 0 .02.02.02.02l.18-.02c.301.921.862 1.742 1.642 2.342.18.14.34.26.541.36l-.1.14c0 .02.02.02.02.02.04.061.04.141.02.201-.08.2-.2.4-.32.58v.02c-.02.04-.04.06-.08.1-.04.04-.08.12-.14.201-.02.02-.02.04-.04.06 0 0 0 .02-.02.02-.1.2-.02.44.16.54.04.02.1.04.14.04.16 0 .3-.1.38-.24 0 0 0-.02.02-.02 0-.02.02-.04.04-.06.02-.08.06-.14.08-.22l.04-.12c.06-.22.16-.42.26-.62.04-.06.1-.1.16-.12.02 0 .02 0 .02-.02l.08-.16c.561.22 1.142.32 1.742.32.36 0 .721-.04 1.081-.14.22-.04.44-.12.641-.18l.08.14c.02 0 .02 0 .02.02.06.02.12.06.16.12.1.2.2.4.26.62v.02l.04.12c.02.08.04.16.08.22.02.02.02.04.04.06 0 0 0 .02.02.02.08.14.221.24.381.24.06 0 .1-.02.16-.04.08-.04.16-.12.18-.22.02-.1.02-.2-.02-.3 0-.02-.02-.02-.02-.02 0-.02-.02-.04-.04-.06a.719.719 0 0 0-.14-.2c-.02-.04-.04-.06-.08-.1v-.04c-.14-.18-.24-.38-.32-.58a.237.237 0 0 1 .02-.201c0-.02.02-.02.02-.02l-.06-.16a4.948 4.948 0 0 0 2.162-2.723l.16.02c.02 0 .02-.02.02-.02.04-.04.1-.06.16-.06h.02c.22.04.44.1.641.18h.02c.04.02.08.04.12.04.08.04.14.08.22.1.02 0 .04.02.08.02.02 0 .02 0 .04.02.04.02.06.02.1.02.18 0 .34-.12.401-.28a.472.472 0 0 0-.36-.42zm-5.786-.62-.54.26-.541-.26-.14-.582.38-.48h.6l.381.48-.14.581zm3.263-1.302c.1.42.12.84.08 1.261l-1.902-.54c-.18-.04-.28-.22-.24-.4.02-.061.04-.101.08-.141l1.502-1.361c.22.36.38.76.48 1.18zm-1.08-1.922-1.643 1.161c-.14.08-.34.06-.44-.08a.182.182 0 0 1-.06-.14l-.12-2.022c.88.1 1.661.48 2.262 1.08zM8.561 5.897l.4-.08-.1 2.002c0 .18-.16.32-.34.32-.06 0-.1-.02-.16-.04L6.701 6.918c.52-.5 1.16-.861 1.861-1.021zM6.12 7.659l1.482 1.32c.14.121.16.321.04.461-.04.06-.08.08-.16.1l-1.943.561c-.06-.84.14-1.702.581-2.442zm-.34 3.383 1.982-.34c.16 0 .32.1.34.26.02.06.02.14-.02.2l-.76 1.842a3.938 3.938 0 0 1-1.542-1.962zm4.544 2.482c-.28.06-.56.1-.86.1-.421 0-.861-.08-1.262-.2l.981-1.781c.1-.12.26-.16.4-.08.06.04.1.08.16.14l.962 1.741c-.12.02-.24.04-.38.08zm2.443-1.741c-.3.48-.721.9-1.202 1.2l-.78-1.881c-.04-.16.04-.32.18-.38.06-.02.12-.04.18-.04l2.002.34c-.1.28-.22.54-.38.76z" stroke="url(#d2ff1thwpe)" stroke-width=".25" fill="url(#w94yu63xcf)" fill-rule="nonzero" transform="translate(2.5 1)"/>
    </g>
</svg>
