<svg width="16" height="16" viewBox="0 0 16 16" xmlns="http://www.w3.org/2000/svg">
    <path
        d="M2.714 13.945V4.446h11.429v9.499c0 .11-.089.198-.198.198H2.912a.198.198 0 0 1-.198-.198zM1 2.912C1 1.856 1.856 1 2.912 1h11.033c1.056 0 1.912.856 1.912 1.912v11.033a1.912 1.912 0 0 1-1.912 1.912H2.912A1.912 1.912 0 0 1 1 13.945V2.912zm7.6 2.97a.286.286 0 0 1 .228 0l4.6 1.992a.286.286 0 0 1 0 .525l-4.6 1.993a.286.286 0 0 1-.227 0L4.97 8.819v2.824a.571.571 0 0 1-1.143 0V8.118A.286.286 0 0 1 4 7.874l4.6-1.993zm-2.683 4.35.003 1.269c0 .062.02.122.058.171l.227-.172-.227.173.002.002.003.004.01.013.034.04c.03.033.071.078.127.132.111.106.277.244.5.382.45.276 1.127.545 2.06.545.932 0 1.611-.269 2.061-.545.224-.137.39-.276.501-.382a2.146 2.146 0 0 0 .162-.172l.01-.012.003-.004.002-.002-.227-.174.228.173a.286.286 0 0 0 .058-.173v-1.268l-2.798 1.212-2.797-1.212z"
        fill="currentColor" fill-rule="evenodd" />
</svg>