<svg width="16" height="16" viewBox="0 0 16 16" xmlns="http://www.w3.org/2000/svg"
    xmlns:xlink="http://www.w3.org/1999/xlink">
    <defs>
        <path id="rp8hyv6fia" d="M0 0h16v16H0z" />
    </defs>
    <g fill="none" fill-rule="evenodd">
        <mask id="jl4r76vksb" fill="#fff">
            <use xlink:href="#rp8hyv6fia" />
        </mask>
        <path
            d="m8.256.666.023.013 6.418 3.657a.6.6 0 0 1 .004 1.04l-.022.012-1.517.798a.2.2 0 0 0-.005.351l1.561.887a.6.6 0 0 1 .017 1.033l-.021.013-1.581.879a.2.2 0 0 0 .004.351l1.542.812.022.012a.6.6 0 0 1 .017 1.027l-.02.013-6.42 3.657-.022.013a.6.6 0 0 1-.548 0l-.024-.013-6.381-3.642-.022-.013a.6.6 0 0 1 .02-1.028l.022-.012 1.585-.827a.2.2 0 0 0 .005-.352l-1.592-.893a.6.6 0 0 1-.025-1.033l.022-.012 1.55-.881a.2.2 0 0 0-.007-.351l-1.538-.803a.6.6 0 0 1-.042-1.04l.022-.013L7.684.68a.6.6 0 0 1 .572-.013zm3.11 9.664-3.075 1.71a.6.6 0 0 1-.56.01l-.025-.012-3.032-1.702a.4.4 0 0 0-.381-.006l-1.116.582a.2.2 0 0 0-.007.351l4.614 2.633a.4.4 0 0 0 .396 0l4.654-2.651a.2.2 0 0 0-.006-.351l-1.08-.568a.4.4 0 0 0-.381.004zM7.804 5.102l-4.661 2.65a.2.2 0 0 0 0 .348l4.664 2.618a.4.4 0 0 0 .39.001l4.69-2.606a.2.2 0 0 0 .001-.349l-4.69-2.662a.4.4 0 0 0-.394 0zm-.02-3.098L3.17 4.637a.2.2 0 0 0 .007.35l1.058.553a.4.4 0 0 0 .382-.007l3.086-1.755a.6.6 0 0 1 .569-.013l.024.013 3.114 1.768a.4.4 0 0 0 .384.006l1.034-.546a.2.2 0 0 0 .006-.35L8.18 2.004a.4.4 0 0 0-.396 0z"
            stroke="currentColor" stroke-width=".5" fill="currentColor" fill-rule="nonzero" mask="url(#jl4r76vksb)" />
    </g>
</svg>