<svg width="26" height="28" viewBox="0 0 26 28" xmlns="http://www.w3.org/2000/svg">
  <defs>
    <linearGradient x1="50%" y1="21.348%" x2="50%" y2="86.706%" id="evc2u9pb4c">
      <stop stop-color="#818C96" stop-opacity="0" offset="0%" />
      <stop stop-color="#818C96" offset="100%" />
    </linearGradient>
    <linearGradient x1="50%" y1="0%" x2="50%" y2="86.637%" id="og30e9fpxb">
      <stop stop-color="#03192D" offset="0%" />
      <stop stop-color="#03192D" offset="100%" />
    </linearGradient>
    <linearGradient x1="50%" y1="0%" x2="50%" y2="86.637%" id="t653mp6gzd">
      <stop stop-color="#E5E8EA" offset="0%" />
      <stop stop-color="#B3BAC0" offset="100%" />
    </linearGradient>
    <linearGradient x1="50%" y1="21.348%" x2="50%" y2="86.706%" id="oaso4ex9ze">
      <stop stop-color="#818C96" stop-opacity="0" offset="0%" />
      <stop stop-color="#818C96" offset="100%" />
    </linearGradient>
    <filter x="-16.8%" y="-10.4%" width="133.7%" height="129.2%" filterUnits="objectBoundingBox" id="e5up03wpya">
      <feOffset dy="1" in="SourceAlpha" result="shadowOffsetOuter1" />
      <feGaussianBlur stdDeviation="1" in="shadowOffsetOuter1" result="shadowBlurOuter1" />
      <feColorMatrix values="0 0 0 0 0.00784313725 0 0 0 0 0.0784313725 0 0 0 0 0.141176471 0 0 0 0.6 0"
        in="shadowBlurOuter1" result="shadowMatrixOuter1" />
      <feMerge>
        <feMergeNode in="shadowMatrixOuter1" />
        <feMergeNode in="SourceGraphic" />
      </feMerge>
    </filter>
  </defs>
  <g fill="none" fill-rule="evenodd">
    <path d="M1 1h24v24H1z" />
    <g filter="url(#e5up03wpya)" transform="translate(2.5 1)" fill="url(#og30e9fpxb)" fill-rule="nonzero"
      stroke="url(#evc2u9pb4c)" stroke-width=".4">
      <path d="m10.4.23 10.192 5.885v11.77l-10.2 5.884L.2 17.885V6.115L10.4.23z" />
    </g>
    <path
      d="M5.045 10C2.242 10 0 7.778 0 5s2.242-5 5.045-5h5.91C13.758 0 16 2.222 16 5s-2.242 5-5.045 5h-5.91m5.728-1.5C12.588 8.5 14 7.027 14 5.25A3.228 3.228 0 0 0 10.773 2H5.227C3.412 2 2 3.473 2 5.25S3.462 8.5 5.227 8.5h5.546"
      transform="translate(5 8)" fill="url(#t653mp6gzd)" fill-rule="nonzero" stroke="url(#oaso4ex9ze)"
      stroke-width=".4" />
  </g>
</svg>