<svg width="16" height="16" viewBox="0 0 16 16" xmlns="http://www.w3.org/2000/svg">
    <path
        d="M13.143 0a1.714 1.714 0 0 1 1.714 1.714v6.193l1.114 3.34a.571.571 0 0 1-.683.736l-1.645-.417h-1.929V8a3.143 3.143 0 0 0-3.143-3.143H2.857V1.714A1.714 1.714 0 0 1 4.571 0h8.572zM8.57 6.286A1.714 1.714 0 0 1 10.286 8v5.143a1.714 1.714 0 0 1-1.715 1.714H4.093l-3.34 1.114a.571.571 0 0 1-.742-.655l.56-2.801V8a1.714 1.714 0 0 1 1.715-1.714H8.57zM3.714 8.429a.714.714 0 1 0 0 1.428h3.429a.714.714 0 1 0 0-1.428H3.714zm0 2.857a.714.714 0 1 0 0 1.428H6a.714.714 0 1 0 0-1.428H3.714z"
        fill="currentColor" fill-rule="evenodd" />
</svg>