<svg width="16" height="16" viewBox="0 0 16 16" xmlns="http://www.w3.org/2000/svg">
    <path
        d="M2.143 1a1.143 1.143 0 1 0 0 2.286 1.143 1.143 0 0 0 0-2.286zm0 6.286a1.143 1.143 0 1 0 0 2.285 1.143 1.143 0 0 0 0-2.285zM1 14.714a1.143 1.143 0 1 1 2.286 0 1.143 1.143 0 0 1-2.286 0zM6.429 1.286a.857.857 0 0 0 0 1.714H15a.857.857 0 0 0 0-1.714H6.429zm0 6.285a.857.857 0 0 0 0 1.715H15a.857.857 0 0 0 0-1.715H6.429zm-.858 7.143c0-.473.384-.857.858-.857H15a.857.857 0 0 1 0 1.714H6.429a.857.857 0 0 1-.858-.857z"
        fill="currentColor" fill-rule="evenodd" />
</svg>