<svg width="16" height="16" viewBox="0 0 16 16" xmlns="http://www.w3.org/2000/svg">
    <path
        d="M1 2.714C1 1.768 1.768 1 2.714 1h3.429c.947 0 1.714.768 1.714 1.714v3.429c0 .947-.767 1.714-1.714 1.714H2.714A1.714 1.714 0 0 1 1 6.143V2.714zm8 0C9 1.768 9.768 1 10.714 1h3.429c.947 0 1.714.768 1.714 1.714v3.429c0 .947-.767 1.714-1.714 1.714h-3.429A1.714 1.714 0 0 1 9 6.143V2.714zM2.714 9C1.768 9 1 9.768 1 10.714v3.429c0 .947.768 1.714 1.714 1.714h3.429c.947 0 1.714-.767 1.714-1.714v-3.429C7.857 9.768 7.09 9 6.143 9H2.714zM9 10.714C9 9.768 9.768 9 10.714 9h3.429c.947 0 1.714.768 1.714 1.714v3.429c0 .947-.767 1.714-1.714 1.714h-3.429A1.714 1.714 0 0 1 9 14.143v-3.429z"
        fill="currentColor" fill-rule="evenodd" />
</svg>