<svg width="26" height="28" viewBox="0 0 26 28" xmlns="http://www.w3.org/2000/svg">
    <defs>
        <linearGradient x1="50%" y1="21.348%" x2="50%" y2="86.706%" id="5agdnng0oc">
            <stop stop-color="#818C96" stop-opacity="0" offset="0%"/>
            <stop stop-color="#818C96" offset="100%"/>
        </linearGradient>
        <linearGradient x1="50%" y1="0%" x2="50%" y2="86.637%" id="iix6y9cozb">
            <stop stop-color="#03192D" offset="0%"/>
            <stop stop-color="#03192D" offset="100%"/>
        </linearGradient>
        <linearGradient x1="50%" y1="0%" x2="50%" y2="86.637%" id="mcba53rh7e">
            <stop stop-color="#E5E8EA" offset="0%"/>
            <stop stop-color="#B3BAC0" offset="100%"/>
        </linearGradient>
        <linearGradient x1="50%" y1="21.348%" x2="50%" y2="86.706%" id="zr87uhy9md">
            <stop stop-color="#818C96" stop-opacity="0" offset="0%"/>
            <stop stop-color="#818C96" offset="100%"/>
        </linearGradient>
        <linearGradient x1="50%" y1="0%" x2="50%" y2="86.637%" id="4jwz1z1hqg">
            <stop stop-color="#E5E8EA" offset="0%"/>
            <stop stop-color="#B3BAC0" offset="100%"/>
        </linearGradient>
        <linearGradient x1="50%" y1="21.348%" x2="50%" y2="86.706%" id="zfd7ymjukf">
            <stop stop-color="#818C96" stop-opacity="0" offset="0%"/>
            <stop stop-color="#818C96" offset="100%"/>
        </linearGradient>
        <linearGradient x1="50%" y1="0%" x2="50%" y2="86.637%" id="s1bf65y40i">
            <stop stop-color="#E5E8EA" offset="0%"/>
            <stop stop-color="#B3BAC0" offset="100%"/>
        </linearGradient>
        <linearGradient x1="50%" y1="21.348%" x2="50%" y2="86.706%" id="z12okps8sh">
            <stop stop-color="#818C96" stop-opacity="0" offset="0%"/>
            <stop stop-color="#818C96" offset="100%"/>
        </linearGradient>
        <filter x="-15.9%" y="-10.4%" width="131.8%" height="129.2%" filterUnits="objectBoundingBox" id="yslmakpl5a">
            <feOffset dy="1" in="SourceAlpha" result="shadowOffsetOuter1"/>
            <feGaussianBlur stdDeviation="1" in="shadowOffsetOuter1" result="shadowBlurOuter1"/>
            <feColorMatrix values="0 0 0 0 0.00784313725 0 0 0 0 0.0784313725 0 0 0 0 0.141176471 0 0 0 0.6 0" in="shadowBlurOuter1" result="shadowMatrixOuter1"/>
            <feMerge>
                <feMergeNode in="shadowMatrixOuter1"/>
                <feMergeNode in="SourceGraphic"/>
            </feMerge>
        </filter>
    </defs>
    <g fill="none" fill-rule="evenodd">
        <path d="M1 1h24v24H1z"/>
        <g filter="url(#yslmakpl5a)" transform="translate(2 1)" fill="url(#iix6y9cozb)" fill-rule="nonzero" stroke="url(#5agdnng0oc)" stroke-width=".5">
            <path d="M11.002.25c3.24-.027 6.453.606 9.435 1.859a2.218 2.218 0 0 1 1.312 2.032v7.296a12.575 12.575 0 0 1-2.329 7.136 12.576 12.576 0 0 1-5.976 4.542l-1.07.39c-.44.16-.906.243-1.37.245a3.975 3.975 0 0 1-1.34-.255l-1.08-.39a12.585 12.585 0 0 1-5.989-4.533A12.583 12.583 0 0 1 .25 11.44v-7.3a2.218 2.218 0 0 1 1.307-2.029 23.855 23.855 0 0 1 9.445-1.86z"/>
        </g>
        <g fill-rule="nonzero" stroke-width=".44">
            <path d="m8.315 13.458.109 1.744-4.044.123-.108-1.744 4.043-.123zm-5.434.003.108 1.746-2.178.116-.435-1.748 2.505-.114zm9.378 0 .104 1.364-2.55.466-.107-1.714 2.553-.116zm-.376-3.145.435 1.747-5.22.124-.109-1.745 4.894-.126zm-6.284.017.107 1.728-5.269.126-.103-1.35 5.265-.504z" stroke="url(#zr87uhy9md)" fill="url(#mcba53rh7e)" transform="translate(6.902 2.948)"/>
            <path d="M8.774.26c-.022 2.179-.015 3.685.459 5.157l1.743-1.655c1.128 1.417 1.393 3.198.914 4.852l-2.87.128c-.325-.435-.491-.649-.69-.83-.987.35-1.289.517-1.547.565-.447-.758-.501-1.512-.29-2.214-1.107-.185-1.757.131-2.23.578-.502.475-.806 1.102-.952 1.783l-2.686.148A3.928 3.928 0 0 1 .22 6.97a5.91 5.91 0 0 1 1.32-3.701l1.492.85C4.497 2.044 6.497.642 8.774.26z" stroke="url(#zfd7ymjukf)" fill="url(#4jwz1z1hqg)" opacity=".323" transform="translate(6.902 2.948)"/>
            <path d="M7.723 3.313c-.013 1.457 0 2.458.345 3.453L9.245 5.65c.677.891.839 1.993.556 3.024l-1.803.08c-.205-.272-.313-.41-.442-.527-.68.19-.878.302-1.035.344a1.698 1.698 0 0 1-.158-1.358c-.83-.215-1.274.002-1.596.307-.33.311-.535.718-.639 1.161l-1.669.092a2.524 2.524 0 0 1-.239-1.114 3.832 3.832 0 0 1 .816-2.35l.99.564c.94-1.357 2.228-2.285 3.697-2.56z" stroke="url(#z12okps8sh)" fill="url(#s1bf65y40i)" transform="translate(6.902 2.948)"/>
        </g>
    </g>
</svg>
