<svg width="16" height="16" viewBox="0 0 16 16" xmlns="http://www.w3.org/2000/svg">
    <path
        d="M2.61 1C1.721 1 1 1.721 1 2.61v3.637c0 .89.721 1.61 1.61 1.61h3.637c.89 0 1.61-.72 1.61-1.61V2.61c0-.889-.72-1.61-1.61-1.61H2.61zM9 10.61C9 9.721 9.721 9 10.61 9h3.637c.89 0 1.61.721 1.61 1.61v3.637c0 .89-.72 1.61-1.61 1.61H10.61A1.61 1.61 0 0 1 9 14.247V10.61zM2.61 9C1.721 9 1 9.721 1 10.61v3.637c0 .89.721 1.61 1.61 1.61h3.637c.89 0 1.61-.72 1.61-1.61V10.61c0-.889-.72-1.61-1.61-1.61H2.61zm9.819-8c.473 0 .857.384.857.857v1.714H15a.857.857 0 0 1 0 1.715h-1.714V7a.857.857 0 0 1-1.715 0V5.286H9.857a.857.857 0 0 1 0-1.715h1.714V1.857c0-.473.384-.857.858-.857z"
        fill="currentColor" fill-rule="evenodd" />
</svg>