<svg width="16" height="16" viewBox="0 0 16 16" xmlns="http://www.w3.org/2000/svg">
    <path
        d="M7.998 0a1.189 1.189 0 0 0-1.075.681L5.11 4.344a.565.565 0 0 0-.014.027.555.555 0 0 0-.026.005l-3.995.591A1.189 1.189 0 0 0 .368 7.01l2.925 2.822.006.006a.034.034 0 0 1 .01.031v.004l-.697 4.078v.001a1.2 1.2 0 0 0 1.744 1.265h.002l3.599-1.903a.103.103 0 0 1 .082 0l3.6 1.903a1.198 1.198 0 0 0 1.745-1.265l-.697-4.079v-.004a.035.035 0 0 1 0-.017.035.035 0 0 1 .01-.014l.006-.006 2.925-2.822a1.188 1.188 0 0 0-.706-2.043l-3.995-.592a.555.555 0 0 0-.026-.004.565.565 0 0 0-.014-.026L9.073.68A1.189 1.189 0 0 0 7.998 0z"
        fill="currentColor" fill-rule="evenodd" />
</svg>