<svg width="16" height="16" viewBox="0 0 16 16" xmlns="http://www.w3.org/2000/svg"
    xmlns:xlink="http://www.w3.org/1999/xlink">
    <defs>
        <path id="0ifg5c12da" d="M0 0h16v16H0z" />
    </defs>
    <g fill="none" fill-rule="evenodd">
        <mask id="l42456583b" fill="#fff">
            <use xlink:href="#0ifg5c12da" />
        </mask>
        <path
            d="M8.063 1.75c.629 0 1.188.444 1.188.991 0 .547-.532.992-1.188.992-.076 0-.174-.013-.294-.037a.396.396 0 0 0-.275.044L3.232 6.165a.198.198 0 0 0 .001.346l4.62 2.595c.12.067.266.068.386 0l4.645-2.583a.198.198 0 0 0 .001-.346l-1.449-.823a.396.396 0 0 0-.387-.002l-1.53.85a.135.135 0 0 0-.069.103v.014c0 .548-.533.992-1.19.992-.655 0-1.188-.444-1.188-.992 0-.547.533-.99 1.189-.99.024 0 .052 0 .084.003l.05.005.055.007a.396.396 0 0 0 .246-.046l2.262-1.256a.594.594 0 0 1 .558-.01l.024.013L14.7 5.84c.395.225.4.79.016 1.025l-.022.012-2.113 1.175a.198.198 0 0 0 .004.35l2.093 1.101c.416.219.426.81.018 1.043l-6.357 3.626a.594.594 0 0 1-.59 0l-6.32-3.61a.595.595 0 0 1 .02-1.045l2.116-1.105a.198.198 0 0 0 .005-.348L1.428 6.86a.595.595 0 0 1-.024-1.023l.022-.013 5.26-2.994a.396.396 0 0 0 .177-.213l.007-.02c.185-.551.605-.848 1.193-.848zm2.934 7.303L8.4 10.547l-.024.013a.591.591 0 0 1-.562-.01L5.225 9.089a.394.394 0 0 0-.376-.006l-1.493.78a.199.199 0 0 0-.006.349l4.56 2.61c.12.07.27.07.391.001l4.6-2.63a.199.199 0 0 0-.007-.347l-1.516-.8a.394.394 0 0 0-.38.007z"
            stroke="currentColor" stroke-width=".5" fill="currentColor" fill-rule="nonzero" mask="url(#l42456583b)" />
    </g>
</svg>