<svg width="16" height="16" viewBox="0 0 16 16" xmlns="http://www.w3.org/2000/svg">
    <path
        d="M6.143 1.857C6.143 1.384 6.527 1 7 1h8a.857.857 0 0 1 0 1.714H7a.857.857 0 0 1-.857-.857zM1 5.143c0-.474.384-.857.857-.857H15A.857.857 0 0 1 15 6H1.857A.857.857 0 0 1 1 5.143zm.857 2.428a.857.857 0 0 0 0 1.715H15a.857.857 0 0 0 0-1.715H1.857zM1 15c0-.473.384-.857.857-.857h8.572a.857.857 0 0 1 0 1.714H1.857A.857.857 0 0 1 1 15zm.857-4.143a.857.857 0 0 0 0 1.714H15a.857.857 0 0 0 0-1.714H1.857z"
        fill="currentColor" fill-rule="evenodd" />
</svg>