<svg width="16" height="16" viewBox="0 0 16 16" xmlns="http://www.w3.org/2000/svg">
    <g fill="currentColor" fill-rule="nonzero">
        <path
            d="M7.997 0c.144 0 .287.004.429.011v3.084c0 .348-.136.679-.374.921a1.244 1.244 0 0 1-.887.375 2.66 2.66 0 0 0-1.939.835 2.73 2.73 0 0 0-.752 1.967v1.651a1.327 1.327 0 0 1-.373.921 1.26 1.26 0 0 1-.888.375H.29A7.997 7.997 0 0 1 7.997 0z" />
        <path
            d="M7.997 15.995A7.998 7.998 0 0 1 .84 11.569h2.373a2.661 2.661 0 0 0 1.906-.803 2.727 2.727 0 0 0 .784-1.922V7.16a1.328 1.328 0 0 1 .358-.949 1.232 1.232 0 0 1 .903-.39c.718 0 1.404-.29 1.907-.803a2.743 2.743 0 0 0 .784-1.922V.217a8.006 8.006 0 0 1 6.037 6.495h-4.83c-.021 0-.042 0-.063.003a2.845 2.845 0 0 0-1.828.888 2.755 2.755 0 0 0-.745 1.88c0 .699.267 1.37.745 1.88.477.512 1.13.827 1.828.89a.743.743 0 0 0 .07.002.803.803 0 0 1 .56.22.74.74 0 0 1 .225.522v2.008a7.961 7.961 0 0 1-3.857.99z" />
        <path
            d="M13.283 14a7.978 7.978 0 0 0 2.71-5.86h-4.896a1.415 1.415 0 0 0-.882.438c-.233.25-.36.573-.36.905 0 .333.127.656.36.906.227.243.54.4.881.437a2.233 2.233 0 0 1 1.526.621 2.143 2.143 0 0 1 .66 1.55V14z" />
    </g>
</svg>