<svg width="16" height="16" viewBox="0 0 16 16" xmlns="http://www.w3.org/2000/svg">
    <path
        d="M5.571 2.143a1.143 1.143 0 0 0-2.285 0v1.143h-.572C1.768 3.286 1 4.053 1 5v9.143c0 .947.768 1.714 1.714 1.714h11.429c.947 0 1.714-.767 1.714-1.714V5c0-.947-.767-1.714-1.714-1.714h-.572V2.143a1.143 1.143 0 1 0-2.285 0v1.143H5.57V2.143zM4.143 7.286c0-.158.128-.286.286-.286h3.428c.158 0 .286.128.286.286v3.428a.286.286 0 0 1-.286.286H4.43a.286.286 0 0 1-.286-.286V7.286z"
        fill="currentColor" fill-rule="evenodd" />
</svg>