<svg width="24" height="24" viewBox="0 0 24 24" xmlns="http://www.w3.org/2000/svg">
  <defs>
    <linearGradient x1="50%" y1="0%" x2="50%" y2="86.637%" id="pfieprc7nb">
      <stop stop-color="#E5E8EA" offset="0%" />
      <stop stop-color="#B3BAC0" offset="100%" />
    </linearGradient>
    <linearGradient x1="50%" y1="21.348%" x2="50%" y2="86.706%" id="ynno1fjpma">
      <stop stop-color="#818C96" stop-opacity="0" offset="0%" />
      <stop stop-color="#818C96" offset="100%" />
    </linearGradient>
    <filter x="-20%" y="-8.3%" width="140%" height="133.3%" filterUnits="objectBoundingBox" id="mqc8yv7wvc">
      <feOffset dy="1" in="SourceAlpha" result="shadowOffsetOuter1" />
      <feGaussianBlur stdDeviation=".5" in="shadowOffsetOuter1" result="shadowBlurOuter1" />
      <feColorMatrix values="0 0 0 0 0.00784313725 0 0 0 0 0.0784313725 0 0 0 0 0.141176471 0 0 0 0.6 0"
        in="shadowBlurOuter1" result="shadowMatrixOuter1" />
      <feMerge>
        <feMergeNode in="shadowMatrixOuter1" />
        <feMergeNode in="SourceGraphic" />
      </feMerge>
    </filter>
  </defs>
  <g fill="none">
    <path d="M0 0h24v24H0z" />
    <circle stroke="url(#ynno1fjpma)" stroke-width=".5" fill="url(#pfieprc7nb)" opacity=".5" cx="12" cy="12"
      r="11.75" />
    <circle stroke="url(#ynno1fjpma)" stroke-width=".5" fill="url(#pfieprc7nb)" cx="12" cy="12" r="9.25" />
    <g filter="url(#mqc8yv7wvc)" fill-rule="evenodd" transform="translate(7 6)" fill="#03192D">
      <path
        d="M9.375 1.638C7.225 1.638 5.516.247 5.5.226A.66.66 0 0 0 5 0a.66.66 0 0 0-.5.226C4.484.246 2.775 1.638.625 1.638A.613.613 0 0 0 0 2.24v4.955c0 2.287 4.227 4.492 4.708 4.737a.651.651 0 0 0 .584 0C5.773 11.686 10 9.48 10 7.194V2.24c0-.332-.28-.6-.625-.6z"
        fill-rule="nonzero" />
    </g>
  </g>
</svg>