<svg width="25" height="24" viewBox="0 0 25 24" xmlns="http://www.w3.org/2000/svg" xmlns:xlink="http://www.w3.org/1999/xlink">
    <defs>
        <path id="2ncpp6t26a" d="M0 0h24v24H0z"/>
    </defs>
    <g transform="translate(.5)" fill="none" fill-rule="evenodd">
        <mask id="1cn20jju6b" fill="#fff">
            <use xlink:href="#2ncpp6t26a"/>
        </mask>
        <path d="m12.47 1.822 5.265 2.841a.9.9 0 0 1 .473.793l-.005 4.577 4.782 2.58a.9.9 0 0 1 .473.793l-.005 5.106a.9.9 0 0 1-.471.79l-5.26 2.853a.9.9 0 0 1-.865-.003l-4.763-2.64-4.872 2.643a.9.9 0 0 1-.865-.003l-5.235-2.9a.9.9 0 0 1-.464-.788v-5.047a.9.9 0 0 1 .47-.79l4.78-2.605V5.467a.9.9 0 0 1 .47-.79l5.234-2.853a.9.9 0 0 1 .858-.002zm4.54 9.922-3.74 2.037a.6.6 0 0 0-.312.527v3.272a.6.6 0 0 0 .309.525l3.743 2.074c.179.099.396.1.576.002l3.754-2.035a.6.6 0 0 0 .314-.527l.003-3.319a.6.6 0 0 0-.315-.528l-3.76-2.029a.6.6 0 0 0-.572.001zm-10.502 0-3.737 2.037a.6.6 0 0 0-.313.527v3.272a.6.6 0 0 0 .309.525L6.51 20.18c.179.099.396.1.576.002l3.754-2.035a.6.6 0 0 0 .314-.527l.003-3.309a.6.6 0 0 0-.314-.528l-3.761-2.038a.6.6 0 0 0-.574 0zm5.251-7.95L8.021 5.83a.6.6 0 0 0-.313.527V9.63a.6.6 0 0 0 .31.526l3.752 2.069a.6.6 0 0 0 .576.002l3.744-2.032a.6.6 0 0 0 .314-.527l.003-3.317a.6.6 0 0 0-.315-.528l-3.76-2.03a.6.6 0 0 0-.573.002z" fill="#7F8C2B" fill-rule="nonzero" mask="url(#1cn20jju6b)"/>
    </g>
</svg>
