<svg width="24" height="24" viewBox="0 0 24 24" xmlns="http://www.w3.org/2000/svg" xmlns:xlink="http://www.w3.org/1999/xlink">
    <defs>
        <path id="r7jmy8c2la" d="M0 0h24v24H0z"/>
    </defs>
    <g fill="none" fill-rule="evenodd">
        <mask id="rvgeb9edlb" fill="#fff">
            <use xlink:href="#r7jmy8c2la"/>
        </mask>
        <path d="M12.094 2.625c.944 0 1.783.666 1.783 1.487 0 .82-.8 1.487-1.783 1.487-.113 0-.26-.018-.441-.055a.594.594 0 0 0-.412.065L4.848 9.248a.298.298 0 0 0 .002.518l6.93 3.893c.18.1.399.101.579.001l6.967-3.875a.298.298 0 0 0 .002-.52l-2.174-1.234a.594.594 0 0 0-.581-.003l-2.295 1.274a.203.203 0 0 0-.103.155l-.001.022c0 .82-.8 1.487-1.783 1.487-.984 0-1.783-.666-1.783-1.487 0-.82.799-1.487 1.783-1.487.036 0 .078.002.126.006l.075.007.083.01a.594.594 0 0 0 .369-.068l3.393-1.884a.89.89 0 0 1 .837-.015l.036.02 4.739 2.692a.893.893 0 0 1 .025 1.537l-.032.018-3.17 1.764a.298.298 0 0 0 .006.523l3.14 1.653a.893.893 0 0 1 .026 1.565l-9.536 5.438a.89.89 0 0 1-.883 0l-9.482-5.416a.893.893 0 0 1 .03-1.566l3.174-1.657a.298.298 0 0 0 .008-.523L2.143 10.29a.893.893 0 0 1-.036-1.535l.031-.019 7.89-4.49a.595.595 0 0 0 .267-.32l.01-.031c.277-.826.907-1.271 1.789-1.271zm4.402 10.954L12.6 15.82l-.036.02a.887.887 0 0 1-.842-.017l-3.884-2.19a.591.591 0 0 0-.565-.01l-2.239 1.172a.298.298 0 0 0-.01.522l6.84 3.916a.591.591 0 0 0 .588 0l6.898-3.944a.298.298 0 0 0-.009-.521l-2.274-1.2a.591.591 0 0 0-.571.01z" fill="#21819A" fill-rule="nonzero" mask="url(#rvgeb9edlb)"/>
    </g>
</svg>
